<svg width="450" height="140" viewBox="-50 -50 90 400" xmlns="http://www.w3.org/2000/svg" preserveAspectRatio="xMinYMin meet">
<rect x="0" y="-10" width="1" height="110" fill="black" />
<text x="15" y="130" font-size="14" text-anchor="end">Tasks</text><rect x="-10" y="0" width="420" height="1" fill="black" />
<text x="460" y="3" font-size="14" text-anchor="end">Ticks</text>
<text x="-15" y="23" font-size="12" text-anchor="end">T1</text>
<text x="-15" y="53" font-size="12" text-anchor="end">T2</text>
<text x="-15" y="83" font-size="12" text-anchor="end">T3</text>
<rect x="1" y="31" width="40" height="30" fill="#7398ab"/>
<rect x="41" y="1" width="60" height="30" fill="#d2bba8"/>
<rect x="101" y="61" width="40" height="30" fill="#87ad94"/>
<rect x="141" y="31" width="40" height="30" fill="#7398ab"/>
<rect x="201" y="31" width="40" height="30" fill="#7398ab"/>
<rect x="241" y="61" width="40" height="30" fill="#87ad94"/>
<rect x="301" y="31" width="40" height="30" fill="#7398ab"/>

<text x="24" y="-8" font-size="11" text-anchor="end">1</text>
<rect x="20" y="-5" width="1" height="10" fill="black"/>
<text x="44" y="-8" font-size="11" text-anchor="end">2</text>
<rect x="40" y="-5" width="1" height="10" fill="black"/>
<text x="64" y="-8" font-size="11" text-anchor="end">3</text>
<rect x="60" y="-5" width="1" height="10" fill="black"/>
<text x="84" y="-8" font-size="11" text-anchor="end">4</text>
<rect x="80" y="-5" width="1" height="10" fill="black"/>
<text x="104" y="-8" font-size="11" text-anchor="end">5</text>
<rect x="100" y="-5" width="1" height="10" fill="black"/>
<text x="124" y="-8" font-size="11" text-anchor="end">6</text>
<rect x="120" y="-5" width="1" height="10" fill="black"/>
<text x="144" y="-8" font-size="11" text-anchor="end">7</text>
<rect x="140" y="-5" width="1" height="10" fill="black"/>
<text x="164" y="-8" font-size="11" text-anchor="end">8</text>
<rect x="160" y="-5" width="1" height="10" fill="black"/>
<text x="184" y="-8" font-size="11" text-anchor="end">9</text>
<rect x="180" y="-5" width="1" height="10" fill="black"/>
<text x="204" y="-8" font-size="11" text-anchor="end">10</text>
<rect x="200" y="-5" width="1" height="10" fill="black"/>
<text x="224" y="-8" font-size="11" text-anchor="end">11</text>
<rect x="220" y="-5" width="1" height="10" fill="black"/>
<text x="244" y="-8" font-size="11" text-anchor="end">12</text>
<rect x="240" y="-5" width="1" height="10" fill="black"/>
<text x="264" y="-8" font-size="11" text-anchor="end">13</text>
<rect x="260" y="-5" width="1" height="10" fill="black"/>
<text x="284" y="-8" font-size="11" text-anchor="end">14</text>
<rect x="280" y="-5" width="1" height="10" fill="black"/>
<text x="304" y="-8" font-size="11" text-anchor="end">15</text>
<rect x="300" y="-5" width="1" height="10" fill="black"/>
<text x="324" y="-8" font-size="11" text-anchor="end">16</text>
<rect x="320" y="-5" width="1" height="10" fill="black"/>
<text x="344" y="-8" font-size="11" text-anchor="end">17</text>
<rect x="340" y="-5" width="1" height="10" fill="black"/>
<text x="364" y="-8" font-size="11" text-anchor="end">18</text>
<rect x="360" y="-5" width="1" height="10" fill="black"/>
<text x="384" y="-8" font-size="11" text-anchor="end">19</text>
<rect x="380" y="-5" width="1" height="10" fill="black"/>
<text x="404" y="-8" font-size="11" text-anchor="end">20</text>
<rect x="400" y="-5" width="1" height="10" fill="black"/>
</svg>